<mxfile host="app.diagrams.net" modified="2023-09-22T07:15:03.420Z" agent="Mozilla/5.0 (Windows NT 10.0; Win64; x64) AppleWebKit/537.36 (KHTML, like Gecko) Chrome/115.0.0.0 Safari/537.36" version="21.8.0" etag="guH-6SITiMhHHg8jiLcq" type="github">
  <diagram name="第 1 页" id="TOERn93ndt1XypITnFcq">
    <mxGraphModel>
      <root>
        <mxCell id="0" />
        <mxCell id="1" parent="0" />
      </root>
    </mxGraphModel>
  </diagram>
</mxfile>
